<svg version="1.2" xmlns="http://www.w3.org/2000/svg" viewBox="0 0 60 63" width="60" height="63">
	<title>Interior Design landing page-svg</title>
	<style>
		.s0 { fill: #000000 } 
	</style>
	<path id="Layer" fill-rule="evenodd" class="s0" d="m46.6 38.3c0.7 0.9 1.1 1.9 1.1 3.1v4.8q0 1-0.4 1.9-0.4 1-1.2 1.7c-0.8 0.8-2 1.2-3.2 1.2q-0.3 0-0.6 0c-6.6-0.9-12.8-3.9-17.6-8.7-4.7-4.8-7.8-11-8.7-17.7q-0.1-1 0.2-2 0.3-1 1-1.8 0.7-0.8 1.6-1.2 1-0.4 2-0.4h4.8c1.2 0 2.3 0.4 3.2 1.1 0.8 0.7 1.4 1.7 1.6 2.9q0.1 0.5 0.2 1.1 0.3 1 0.6 2.1c0.3 0.7 0.3 1.5 0 2.3-0.3 0.7-0.9 1.3-1.6 1.7l-0.7 0.3q1.3 2.3 3.2 4.3 1.9 1.9 4.3 3.2l0.3-0.7c0.4-0.8 1-1.3 1.7-1.6 0.7-0.3 1.6-0.3 2.3-0.1q1 0.4 2.1 0.7c0.3 0.1 0.7 0.2 1.1 0.2 1.1 0.2 2 0.8 2.7 1.6zm-2.1 3c0-0.3-0.1-0.7-0.3-1-0.3-0.3-0.6-0.5-0.9-0.6q-0.7-0.1-1.3-0.2-1.3-0.3-2.6-0.7l-1 2.2c-0.2 0.4-0.5 0.7-0.9 0.8-0.4 0.2-0.8 0.2-1.2 0-4.9-2.3-8.9-6.3-11.2-11.2-0.2-0.4-0.2-0.8 0-1.2 0.2-0.4 0.5-0.7 0.8-0.9l2.3-1.1q-0.5-1.2-0.8-2.5c-0.1-0.4-0.2-0.8-0.2-1.3-0.1-0.3-0.3-0.7-0.6-0.9-0.3-0.2-0.6-0.3-1-0.3h-4.8q-0.3 0-0.7 0.1-0.3 0.1-0.5 0.4-0.2 0.3-0.3 0.6-0.2 0.4-0.1 0.7c0.8 6 3.5 11.6 7.8 15.9 4.3 4.3 9.8 7 15.8 7.8q0.4 0 0.7-0.1 0.4-0.1 0.6-0.3 0.3-0.2 0.4-0.6 0.2-0.3 0.2-0.6zm-0.3-18.6c2.4 2.4 3.7 5.7 3.7 9.1q0 0.6 0 1.1c0 0.4-0.2 0.8-0.5 1.1-0.3 0.2-0.7 0.4-1.1 0.4h-0.1c-0.4 0-0.8-0.2-1.1-0.6-0.2-0.3-0.4-0.7-0.3-1.1q0-0.5 0-0.9c0-2.5-1.1-5-2.9-6.8-1.8-1.8-4.2-2.8-6.7-2.8h-0.9c-0.4 0-0.8-0.1-1.2-0.4-0.3-0.3-0.5-0.7-0.5-1.1-0.1-0.4 0.1-0.8 0.3-1.2 0.3-0.3 0.7-0.5 1.1-0.5q0.6 0 1.2 0c3.3 0 6.6 1.3 9 3.7zm-6.8 6.8c-0.6-0.6-1.4-0.9-2.2-0.9-0.5 0-0.9-0.2-1.2-0.5-0.3-0.3-0.4-0.7-0.4-1.1 0-0.4 0.1-0.8 0.4-1.1 0.3-0.3 0.7-0.5 1.2-0.5 1.7 0 3.3 0.7 4.5 1.9 1.2 1.2 1.9 2.8 1.9 4.5 0 0.4-0.2 0.8-0.5 1.1-0.3 0.3-0.7 0.5-1.1 0.5-0.5 0-0.9-0.2-1.2-0.5-0.3-0.3-0.4-0.7-0.4-1.1 0-0.8-0.4-1.7-1-2.3z"/>
</svg>